<?xml version="1.0" encoding="iso-8859-1"?>
<!-- Uploaded to: SVG Repo, www.svgrepo.com, Generator: SVG Repo Mixer Tools -->
<svg fill="#000000" version="1.1" id="Layer_1" xmlns="http://www.w3.org/2000/svg" xmlns:xlink="http://www.w3.org/1999/xlink" 
	 viewBox="0 0 512 512" xml:space="preserve">
<g>
	<g>
		<path d="M425.768,342.232V0H166.42L53.895,112.526V512h363.789v-16.168H70.063V123.958h107.789V16.168H409.6v326.063H425.768z
			 M161.684,107.789H81.495l80.189-80.189V107.789z"/>
	</g>
</g>
<g>
	<g>
		<rect x="105.095" y="150.905" width="269.474" height="16.168"/>
	</g>
</g>
<g>
	<g>
		<rect x="288.337" y="43.116" width="16.168" height="16.168"/>
	</g>
</g>
<g>
	<g>
		<rect x="353.01" y="43.116" width="16.168" height="16.168"/>
	</g>
</g>
<g>
	<g>
		<rect x="320.674" y="43.116" width="16.168" height="16.168"/>
	</g>
</g>
<g>
	<g>
		<rect x="288.337" y="75.453" width="16.168" height="16.168"/>
	</g>
</g>
<g>
	<g>
		<rect x="320.674" y="75.453" width="16.168" height="16.168"/>
	</g>
</g>
<g>
	<g>
		<rect x="256" y="75.453" width="16.168" height="16.168"/>
	</g>
</g>
<g>
	<g>
		<rect x="353.01" y="75.453" width="16.168" height="16.168"/>
	</g>
</g>
<g>
	<g>
		<rect x="256" y="107.789" width="16.168" height="16.168"/>
	</g>
</g>
<g>
	<g>
		<rect x="320.674" y="107.789" width="16.168" height="16.168"/>
	</g>
</g>
<g>
	<g>
		<rect x="223.663" y="107.789" width="16.168" height="16.168"/>
	</g>
</g>
<g>
	<g>
		<rect x="353.01" y="107.789" width="16.168" height="16.168"/>
	</g>
</g>
<g>
	<g>
		<rect x="288.337" y="107.789" width="16.168" height="16.168"/>
	</g>
</g>
<g>
	<g>
		<rect x="105.095" y="191.326" width="269.474" height="16.168"/>
	</g>
</g>
<g>
	<g>
		<rect x="105.095" y="231.747" width="269.474" height="16.168"/>
	</g>
</g>
<g>
	<g>
		<rect x="105.095" y="272.168" width="269.474" height="16.168"/>
	</g>
</g>
<g>
	<g>
		<rect x="105.095" y="312.589" width="134.737" height="16.168"/>
	</g>
</g>
<g>
	<g>
		<path d="M199.001,353.671l36.837,64.913l-37.379,61.079h259.647V353.671H199.001z M441.937,463.495H227.31l27.294-44.6
			l-27.837-49.054h215.169V463.495z"/>
	</g>
</g>
<g>
	<g>
		<polygon points="278.334,387.381 278.334,397.781 294.244,397.781 294.244,443.919 307.36,443.919 307.36,397.781 
			323.269,397.781 323.269,387.381 		"/>
	</g>
</g>
<g>
	<g>
		<path d="M360.792,414.273l17.734-26.891h-12.573c-1.112,0-1.993,0.543-2.639,1.63l-9.856,16.919
			c-0.207,0.337-0.395,0.66-0.563,0.97s-0.317,0.634-0.446,0.97l-11.252-19.053c-0.31-0.516-0.666-0.886-1.067-1.106
			c-0.401-0.22-1.028-0.33-1.882-0.33h-13.116l17.501,27.473l-18.199,29.064h12.262c0.776,0,1.422-0.213,1.94-0.64
			c0.516-0.427,0.931-0.912,1.242-1.455l10.555-18.316c0.258-0.414,0.49-0.905,0.697-1.475l11.331,19.79
			c0.31,0.569,0.731,1.061,1.261,1.475c0.53,0.414,1.223,0.621,2.077,0.621h13.116L360.792,414.273z"/>
	</g>
</g>
<g>
	<g>
		<polygon points="380.078,387.381 380.078,397.781 395.988,397.781 395.988,443.919 409.104,443.919 409.104,397.781 
			425.014,397.781 425.014,387.381 		"/>
	</g>
</g>
</svg>